<?xml version="1.0" encoding="UTF-8" standalone="no"?>
<!DOCTYPE svg PUBLIC "-//W3C//DTD SVG 1.1//EN"
 "http://www.w3.org/Graphics/SVG/1.1/DTD/svg11.dtd">
<!-- Generated by graphviz version 11.0.0 (20240428.1522)
 -->
<!-- Title: C:/Users/harshn/Desktop/MTEngine/MTEngine.hpp Pages: 1 -->
<svg width="471pt" height="96pt"
 viewBox="0.00 0.00 471.00 96.00" xmlns="http://www.w3.org/2000/svg" xmlns:xlink="http://www.w3.org/1999/xlink">
<g id="graph0" class="graph" transform="scale(1 1) rotate(0) translate(4 92)">
<title>C:/Users/harshn/Desktop/MTEngine/MTEngine.hpp</title>
<!-- Node1 -->
<g id="Node000001" class="node">
<title>Node1</title>
<g id="a_Node000001"><a xlink:title=" ">
<polygon fill="#999999" stroke="#666666" points="285.75,-88 158,-88 158,-56 285.75,-56 285.75,-88"/>
<text text-anchor="start" x="166" y="-74.5" font-family="Helvetica,sans-Serif" font-size="10.00">C:/Users/harshn/Desktop</text>
<text text-anchor="middle" x="221.88" y="-62.5" font-family="Helvetica,sans-Serif" font-size="10.00">/MTEngine/MTEngine.hpp</text>
</a>
</g>
</g>
<!-- Node2 -->
<g id="Node000002" class="node">
<title>Node2</title>
<g id="a_Node000002"><a xlink:title=" ">
<polygon fill="#e0e0e0" stroke="#999999" points="55.75,-20 0,-20 0,0 55.75,0 55.75,-20"/>
<text text-anchor="middle" x="27.88" y="-6.5" font-family="Helvetica,sans-Serif" font-size="10.00">algorithm</text>
</a>
</g>
</g>
<!-- Node1&#45;&gt;Node2 -->
<g id="edge1_Node000001_Node000002" class="edge">
<title>Node1&#45;&gt;Node2</title>
<g id="a_edge1_Node000001_Node000002"><a xlink:title=" ">
<path fill="none" stroke="#63b8ff" d="M171.92,-55.55C139.26,-45.45 97.23,-32.45 67.01,-23.1"/>
<polygon fill="#63b8ff" stroke="#63b8ff" points="68.08,-19.77 57.49,-20.16 66.01,-26.46 68.08,-19.77"/>
</a>
</g>
</g>
<!-- Node3 -->
<g id="Node000003" class="node">
<title>Node3</title>
<g id="a_Node000003"><a xlink:title=" ">
<polygon fill="#e0e0e0" stroke="#999999" points="122,-20 73.75,-20 73.75,0 122,0 122,-20"/>
<text text-anchor="middle" x="97.88" y="-6.5" font-family="Helvetica,sans-Serif" font-size="10.00">random</text>
</a>
</g>
</g>
<!-- Node1&#45;&gt;Node3 -->
<g id="edge2_Node000001_Node000003" class="edge">
<title>Node1&#45;&gt;Node3</title>
<g id="a_edge2_Node000001_Node000003"><a xlink:title=" ">
<path fill="none" stroke="#63b8ff" d="M189.94,-55.55C170.75,-46.26 146.48,-34.52 127.68,-25.42"/>
<polygon fill="#63b8ff" stroke="#63b8ff" points="129.21,-22.27 118.68,-21.07 126.16,-28.57 129.21,-22.27"/>
</a>
</g>
</g>
<!-- Node4 -->
<g id="Node000004" class="node">
<title>Node4</title>
<g id="a_Node000004"><a xlink:title=" ">
<polygon fill="#e0e0e0" stroke="#999999" points="181.62,-20 140.12,-20 140.12,0 181.62,0 181.62,-20"/>
<text text-anchor="middle" x="160.88" y="-6.5" font-family="Helvetica,sans-Serif" font-size="10.00">vector</text>
</a>
</g>
</g>
<!-- Node1&#45;&gt;Node4 -->
<g id="edge3_Node000001_Node000004" class="edge">
<title>Node1&#45;&gt;Node4</title>
<g id="a_edge3_Node000001_Node000004"><a xlink:title=" ">
<path fill="none" stroke="#63b8ff" d="M206.17,-55.55C197.69,-47.22 187.21,-36.91 178.47,-28.3"/>
<polygon fill="#63b8ff" stroke="#63b8ff" points="181.1,-25.99 171.52,-21.47 176.19,-30.98 181.1,-25.99"/>
</a>
</g>
</g>
<!-- Node5 -->
<g id="Node000005" class="node">
<title>Node5</title>
<g id="a_Node000005"><a xlink:title=" ">
<polygon fill="#e0e0e0" stroke="#999999" points="244.5,-20 199.25,-20 199.25,0 244.5,0 244.5,-20"/>
<text text-anchor="middle" x="221.88" y="-6.5" font-family="Helvetica,sans-Serif" font-size="10.00">chrono</text>
</a>
</g>
</g>
<!-- Node1&#45;&gt;Node5 -->
<g id="edge4_Node000001_Node000005" class="edge">
<title>Node1&#45;&gt;Node5</title>
<g id="a_edge4_Node000001_Node000005"><a xlink:title=" ">
<path fill="none" stroke="#63b8ff" d="M221.88,-55.55C221.88,-48.34 221.88,-39.66 221.88,-31.88"/>
<polygon fill="#63b8ff" stroke="#63b8ff" points="225.38,-31.92 221.88,-21.92 218.38,-31.92 225.38,-31.92"/>
</a>
</g>
</g>
<!-- Node6 -->
<g id="Node000006" class="node">
<title>Node6</title>
<g id="a_Node000006"><a xlink:title=" ">
<polygon fill="#e0e0e0" stroke="#999999" points="300.75,-20 263,-20 263,0 300.75,0 300.75,-20"/>
<text text-anchor="middle" x="281.88" y="-6.5" font-family="Helvetica,sans-Serif" font-size="10.00">array</text>
</a>
</g>
</g>
<!-- Node1&#45;&gt;Node6 -->
<g id="edge5_Node000001_Node000006" class="edge">
<title>Node1&#45;&gt;Node6</title>
<g id="a_edge5_Node000001_Node000006"><a xlink:title=" ">
<path fill="none" stroke="#63b8ff" d="M237.33,-55.55C245.66,-47.22 255.97,-36.91 264.57,-28.3"/>
<polygon fill="#63b8ff" stroke="#63b8ff" points="266.8,-31.02 271.4,-21.48 261.85,-26.07 266.8,-31.02"/>
</a>
</g>
</g>
<!-- Node7 -->
<g id="Node000007" class="node">
<title>Node7</title>
<g id="a_Node000007"><a xlink:title=" ">
<polygon fill="#e0e0e0" stroke="#999999" points="372.62,-20 319.12,-20 319.12,0 372.62,0 372.62,-20"/>
<text text-anchor="middle" x="345.88" y="-6.5" font-family="Helvetica,sans-Serif" font-size="10.00">iostream</text>
</a>
</g>
</g>
<!-- Node1&#45;&gt;Node7 -->
<g id="edge6_Node000001_Node000007" class="edge">
<title>Node1&#45;&gt;Node7</title>
<g id="a_edge6_Node000001_Node000007"><a xlink:title=" ">
<path fill="none" stroke="#63b8ff" d="M253.81,-55.55C273,-46.26 297.27,-34.52 316.07,-25.42"/>
<polygon fill="#63b8ff" stroke="#63b8ff" points="317.59,-28.57 325.07,-21.07 314.54,-22.27 317.59,-28.57"/>
</a>
</g>
</g>
<!-- Node8 -->
<g id="Node000008" class="node">
<title>Node8</title>
<g id="a_Node000008"><a xlink:title=" ">
<polygon fill="#e0e0e0" stroke="#999999" points="463,-20 390.75,-20 390.75,0 463,0 463,-20"/>
<text text-anchor="middle" x="426.88" y="-6.5" font-family="Helvetica,sans-Serif" font-size="10.00">initializer_list</text>
</a>
</g>
</g>
<!-- Node1&#45;&gt;Node8 -->
<g id="edge7_Node000001_Node000008" class="edge">
<title>Node1&#45;&gt;Node8</title>
<g id="a_edge7_Node000001_Node000008"><a xlink:title=" ">
<path fill="none" stroke="#63b8ff" d="M274.67,-55.55C308.52,-45.64 351.92,-32.94 383.7,-23.64"/>
<polygon fill="#63b8ff" stroke="#63b8ff" points="384.36,-27.09 392.98,-20.92 382.4,-20.37 384.36,-27.09"/>
</a>
</g>
</g>
</g>
</svg>
