<?xml version="1.0" encoding="UTF-8" standalone="no"?>
<!DOCTYPE svg PUBLIC "-//W3C//DTD SVG 1.1//EN"
 "http://www.w3.org/Graphics/SVG/1.1/DTD/svg11.dtd">
<!-- Generated by graphviz version 11.0.0 (20240428.1522)
 -->
<!-- Title: C:/Users/harshn/Desktop/MTEngine/example.cpp Pages: 1 -->
<svg width="472pt" height="152pt"
 viewBox="0.00 0.00 471.50 152.00" xmlns="http://www.w3.org/2000/svg" xmlns:xlink="http://www.w3.org/1999/xlink">
<g id="graph0" class="graph" transform="scale(1 1) rotate(0) translate(4 148)">
<title>C:/Users/harshn/Desktop/MTEngine/example.cpp</title>
<!-- Node1 -->
<g id="Node000001" class="node">
<title>Node1</title>
<g id="a_Node000001"><a xlink:title=" ">
<polygon fill="#999999" stroke="#666666" points="318.5,-144 193,-144 193,-112 318.5,-112 318.5,-144"/>
<text text-anchor="start" x="201" y="-130.5" font-family="Helvetica,sans-Serif" font-size="10.00">C:/Users/harshn/Desktop</text>
<text text-anchor="middle" x="255.75" y="-118.5" font-family="Helvetica,sans-Serif" font-size="10.00">/MTEngine/example.cpp</text>
</a>
</g>
</g>
<!-- Node2 -->
<g id="Node000002" class="node">
<title>Node2</title>
<g id="a_Node000002"><a xlink:href="_m_t_engine_8hpp.html" target="_top" xlink:title=" ">
<polygon fill="white" stroke="#666666" points="261.88,-76 183.62,-76 183.62,-56 261.88,-56 261.88,-76"/>
<text text-anchor="middle" x="222.75" y="-62.5" font-family="Helvetica,sans-Serif" font-size="10.00">MTEngine.hpp</text>
</a>
</g>
</g>
<!-- Node1&#45;&gt;Node2 -->
<g id="edge1_Node000001_Node000002" class="edge">
<title>Node1&#45;&gt;Node2</title>
<g id="a_edge1_Node000001_Node000002"><a xlink:title=" ">
<path fill="none" stroke="#63b8ff" d="M247.25,-111.55C243.05,-103.91 237.94,-94.61 233.47,-86.49"/>
<polygon fill="#63b8ff" stroke="#63b8ff" points="236.54,-84.81 228.65,-77.73 230.41,-88.18 236.54,-84.81"/>
</a>
</g>
</g>
<!-- Node5 -->
<g id="Node000005" class="node">
<title>Node5</title>
<g id="a_Node000005"><a xlink:title=" ">
<polygon fill="#e0e0e0" stroke="#999999" points="41.5,-20 0,-20 0,0 41.5,0 41.5,-20"/>
<text text-anchor="middle" x="20.75" y="-6.5" font-family="Helvetica,sans-Serif" font-size="10.00">vector</text>
</a>
</g>
</g>
<!-- Node1&#45;&gt;Node5 -->
<g id="edge10_Node000001_Node000005" class="edge">
<title>Node1&#45;&gt;Node5</title>
<g id="a_edge10_Node000001_Node000005"><a xlink:title=" ">
<path fill="none" stroke="#63b8ff" d="M224.54,-111.6C178.87,-89.05 94.42,-47.36 49.93,-25.4"/>
<polygon fill="#63b8ff" stroke="#63b8ff" points="51.65,-22.35 41.14,-21.06 48.55,-28.63 51.65,-22.35"/>
</a>
</g>
</g>
<!-- Node8 -->
<g id="Node000008" class="node">
<title>Node8</title>
<g id="a_Node000008"><a xlink:title=" ">
<polygon fill="#e0e0e0" stroke="#999999" points="463.5,-20 410,-20 410,0 463.5,0 463.5,-20"/>
<text text-anchor="middle" x="436.75" y="-6.5" font-family="Helvetica,sans-Serif" font-size="10.00">iostream</text>
</a>
</g>
</g>
<!-- Node1&#45;&gt;Node8 -->
<g id="edge11_Node000001_Node000008" class="edge">
<title>Node1&#45;&gt;Node8</title>
<g id="a_edge11_Node000001_Node000008"><a xlink:title=" ">
<path fill="none" stroke="#63b8ff" d="M263.65,-111.58C272.58,-95.57 288.55,-70.85 308.75,-56 323.35,-45.27 366.64,-31.18 398.85,-21.65"/>
<polygon fill="#63b8ff" stroke="#63b8ff" points="399.65,-25.06 408.27,-18.9 397.69,-18.34 399.65,-25.06"/>
</a>
</g>
</g>
<!-- Node10 -->
<g id="Node000010" class="node">
<title>Node10</title>
<g id="a_Node000010"><a xlink:title=" ">
<polygon fill="#e0e0e0" stroke="#999999" points="435.38,-76 318.12,-76 318.12,-56 435.38,-56 435.38,-76"/>
<text text-anchor="middle" x="376.75" y="-62.5" font-family="Helvetica,sans-Serif" font-size="10.00">PrintUtils/PrintUtils.hpp</text>
</a>
</g>
</g>
<!-- Node1&#45;&gt;Node10 -->
<g id="edge9_Node000001_Node000010" class="edge">
<title>Node1&#45;&gt;Node10</title>
<g id="a_edge9_Node000001_Node000010"><a xlink:title=" ">
<path fill="none" stroke="#63b8ff" d="M286.91,-111.55C305.64,-102.26 329.32,-90.52 347.67,-81.42"/>
<polygon fill="#63b8ff" stroke="#63b8ff" points="349.02,-84.66 356.42,-77.08 345.91,-78.39 349.02,-84.66"/>
</a>
</g>
</g>
<!-- Node3 -->
<g id="Node000003" class="node">
<title>Node3</title>
<g id="a_Node000003"><a xlink:title=" ">
<polygon fill="#e0e0e0" stroke="#999999" points="115.62,-20 59.88,-20 59.88,0 115.62,0 115.62,-20"/>
<text text-anchor="middle" x="87.75" y="-6.5" font-family="Helvetica,sans-Serif" font-size="10.00">algorithm</text>
</a>
</g>
</g>
<!-- Node2&#45;&gt;Node3 -->
<g id="edge2_Node000002_Node000003" class="edge">
<title>Node2&#45;&gt;Node3</title>
<g id="a_edge2_Node000002_Node000003"><a xlink:title=" ">
<path fill="none" stroke="#63b8ff" d="M199.23,-55.59C177.88,-47.05 146.12,-34.35 121.95,-24.68"/>
<polygon fill="#63b8ff" stroke="#63b8ff" points="123.44,-21.51 112.85,-21.04 120.84,-28.01 123.44,-21.51"/>
</a>
</g>
</g>
<!-- Node4 -->
<g id="Node000004" class="node">
<title>Node4</title>
<g id="a_Node000004"><a xlink:title=" ">
<polygon fill="#e0e0e0" stroke="#999999" points="181.88,-20 133.62,-20 133.62,0 181.88,0 181.88,-20"/>
<text text-anchor="middle" x="157.75" y="-6.5" font-family="Helvetica,sans-Serif" font-size="10.00">random</text>
</a>
</g>
</g>
<!-- Node2&#45;&gt;Node4 -->
<g id="edge3_Node000002_Node000004" class="edge">
<title>Node2&#45;&gt;Node4</title>
<g id="a_edge3_Node000002_Node000004"><a xlink:title=" ">
<path fill="none" stroke="#63b8ff" d="M211.43,-55.59C202.11,-47.85 188.67,-36.69 177.57,-27.47"/>
<polygon fill="#63b8ff" stroke="#63b8ff" points="180.04,-24.96 170.11,-21.27 175.56,-30.35 180.04,-24.96"/>
</a>
</g>
</g>
<!-- Node2&#45;&gt;Node5 -->
<g id="edge4_Node000002_Node000005" class="edge">
<title>Node2&#45;&gt;Node5</title>
<g id="a_edge4_Node000002_Node000005"><a xlink:title=" ">
<path fill="none" stroke="#63b8ff" d="M185.07,-55.55C152.47,-47.29 103.81,-34.74 52.65,-20.46"/>
<polygon fill="#63b8ff" stroke="#63b8ff" points="53.73,-17.13 43.16,-17.8 51.84,-23.87 53.73,-17.13"/>
</a>
</g>
</g>
<!-- Node6 -->
<g id="Node000006" class="node">
<title>Node6</title>
<g id="a_Node000006"><a xlink:title=" ">
<polygon fill="#e0e0e0" stroke="#999999" points="245.38,-20 200.12,-20 200.12,0 245.38,0 245.38,-20"/>
<text text-anchor="middle" x="222.75" y="-6.5" font-family="Helvetica,sans-Serif" font-size="10.00">chrono</text>
</a>
</g>
</g>
<!-- Node2&#45;&gt;Node6 -->
<g id="edge5_Node000002_Node000006" class="edge">
<title>Node2&#45;&gt;Node6</title>
<g id="a_edge5_Node000002_Node000006"><a xlink:title=" ">
<path fill="none" stroke="#63b8ff" d="M222.75,-55.59C222.75,-49.01 222.75,-39.96 222.75,-31.73"/>
<polygon fill="#63b8ff" stroke="#63b8ff" points="226.25,-31.81 222.75,-21.81 219.25,-31.81 226.25,-31.81"/>
</a>
</g>
</g>
<!-- Node7 -->
<g id="Node000007" class="node">
<title>Node7</title>
<g id="a_Node000007"><a xlink:title=" ">
<polygon fill="#e0e0e0" stroke="#999999" points="301.62,-20 263.88,-20 263.88,0 301.62,0 301.62,-20"/>
<text text-anchor="middle" x="282.75" y="-6.5" font-family="Helvetica,sans-Serif" font-size="10.00">array</text>
</a>
</g>
</g>
<!-- Node2&#45;&gt;Node7 -->
<g id="edge6_Node000002_Node000007" class="edge">
<title>Node2&#45;&gt;Node7</title>
<g id="a_edge6_Node000002_Node000007"><a xlink:title=" ">
<path fill="none" stroke="#63b8ff" d="M233.2,-55.59C241.72,-47.93 253.96,-36.91 264.14,-27.75"/>
<polygon fill="#63b8ff" stroke="#63b8ff" points="266.2,-30.6 271.29,-21.31 261.52,-25.4 266.2,-30.6"/>
</a>
</g>
</g>
<!-- Node2&#45;&gt;Node8 -->
<g id="edge7_Node000002_Node000008" class="edge">
<title>Node2&#45;&gt;Node8</title>
<g id="a_edge7_Node000002_Node000008"><a xlink:title=" ">
<path fill="none" stroke="#63b8ff" d="M260.03,-55.59C298.94,-45.78 359.63,-30.46 398.8,-20.58"/>
<polygon fill="#63b8ff" stroke="#63b8ff" points="399.41,-24.03 408.25,-18.19 397.7,-17.24 399.41,-24.03"/>
</a>
</g>
</g>
<!-- Node9 -->
<g id="Node000009" class="node">
<title>Node9</title>
<g id="a_Node000009"><a xlink:title=" ">
<polygon fill="#e0e0e0" stroke="#999999" points="391.88,-20 319.62,-20 319.62,0 391.88,0 391.88,-20"/>
<text text-anchor="middle" x="355.75" y="-6.5" font-family="Helvetica,sans-Serif" font-size="10.00">initializer_list</text>
</a>
</g>
</g>
<!-- Node2&#45;&gt;Node9 -->
<g id="edge8_Node000002_Node000009" class="edge">
<title>Node2&#45;&gt;Node9</title>
<g id="a_edge8_Node000002_Node000009"><a xlink:title=" ">
<path fill="none" stroke="#63b8ff" d="M245.92,-55.59C266.96,-47.05 298.25,-34.35 322.05,-24.68"/>
<polygon fill="#63b8ff" stroke="#63b8ff" points="323.05,-28.05 331,-21.05 320.42,-21.57 323.05,-28.05"/>
</a>
</g>
</g>
</g>
</svg>
