<?xml version="1.0" encoding="UTF-8" standalone="no"?>
<!DOCTYPE svg PUBLIC "-//W3C//DTD SVG 1.1//EN"
 "http://www.w3.org/Graphics/SVG/1.1/DTD/svg11.dtd">
<!-- Generated by graphviz version 11.0.0 (20240428.1522)
 -->
<!-- Title: main Pages: 1 -->
<svg width="296pt" height="104pt"
 viewBox="0.00 0.00 296.00 104.00" xmlns="http://www.w3.org/2000/svg" xmlns:xlink="http://www.w3.org/1999/xlink">

<svg id="main" version="1.1" xmlns="http://www.w3.org/2000/svg" xmlns:xlink="http://www.w3.org/1999/xlink" xml:space="preserve" onload="init(evt)">
<style type="text/css"><![CDATA[
.node, .edge {opacity: 0.7;}
.node.selected, .edge.selected {opacity: 1;}
.edge:hover path { stroke: red; }
.edge:hover polygon { stroke: red; fill: red; }
]]></style>
<script type="application/ecmascript" xlink:href="svg.min.js"/>
<svg id="graph" class="graph">
<g id="graph0" class="graph" transform="scale(1 1) rotate(0) translate(4 100)">
<title>main</title>
<!-- Node1 -->
<g id="Node000001" class="node">
<title>Node1</title>
<g id="a_Node000001"><a xlink:title=" ">
<polygon fill="#999999" stroke="#666666" points="37,-58 0,-58 0,-38 37,-38 37,-58"/>
<text text-anchor="middle" x="18.5" y="-44.5" font-family="Helvetica,sans-Serif" font-size="10.00">main</text>
</a>
</g>
</g>
<!-- Node2 -->
<g id="Node000002" class="node">
<title>Node2</title>
<g id="a_Node000002"><a xlink:href="class_m_t_engine.html#a90e46a58f11c4f984fa34b9d972b75d1" target="_top" xlink:title=" ">
<polygon fill="white" stroke="#666666" points="167.38,-96 73.38,-96 73.38,-76 167.38,-76 167.38,-96"/>
<text text-anchor="middle" x="120.38" y="-82.5" font-family="Helvetica,sans-Serif" font-size="10.00">MTEngine::choice</text>
</a>
</g>
</g>
<!-- Node1&#45;&gt;Node2 -->
<g id="edge1_Node000001_Node000002" class="edge">
<title>Node1&#45;&gt;Node2</title>
<g id="a_edge1_Node000001_Node000002"><a xlink:title=" ">
<path fill="none" stroke="#63b8ff" d="M37.36,-54.79C49.55,-59.43 66.16,-65.75 81.25,-71.49"/>
<polygon fill="#63b8ff" stroke="#63b8ff" points="79.87,-74.72 90.46,-75 82.36,-68.17 79.87,-74.72"/>
</a>
</g>
</g>
<!-- Node3 -->
<g id="Node000003" class="node">
<title>Node3</title>
<g id="a_Node000003"><a xlink:href="class_m_t_engine.html#abf13506763be69dc291d10ac8d0936c5" target="_top" xlink:title=" ">
<polygon fill="white" stroke="#666666" points="288,-77 203.75,-77 203.75,-57 288,-57 288,-77"/>
<text text-anchor="middle" x="245.88" y="-63.5" font-family="Helvetica,sans-Serif" font-size="10.00">MTEngine::rand</text>
</a>
</g>
</g>
<!-- Node1&#45;&gt;Node3 -->
<g id="edge3_Node000001_Node000003" class="edge">
<title>Node1&#45;&gt;Node3</title>
<g id="a_edge3_Node000001_Node000003"><a xlink:title=" ">
<path fill="none" stroke="#63b8ff" d="M37.18,-49.49C70.21,-52.27 142.41,-58.36 192.33,-62.57"/>
<polygon fill="#63b8ff" stroke="#63b8ff" points="191.8,-66.04 202.05,-63.39 192.38,-59.06 191.8,-66.04"/>
</a>
</g>
</g>
<!-- Node4 -->
<g id="Node000004" class="node">
<title>Node4</title>
<g id="a_Node000004"><a xlink:href="class_m_t_engine.html#a7e5bc79070625240c2c64bfbe80b0dd9" target="_top" xlink:title=" ">
<polygon fill="white" stroke="#666666" points="167.75,-20 73,-20 73,0 167.75,0 167.75,-20"/>
<text text-anchor="middle" x="120.38" y="-6.5" font-family="Helvetica,sans-Serif" font-size="10.00">MTEngine::Shuffle</text>
</a>
</g>
</g>
<!-- Node1&#45;&gt;Node4 -->
<g id="edge4_Node000001_Node000004" class="edge">
<title>Node1&#45;&gt;Node4</title>
<g id="a_edge4_Node000001_Node000004"><a xlink:title=" ">
<path fill="none" stroke="#63b8ff" d="M37.36,-41.21C49.55,-36.57 66.16,-30.25 81.25,-24.51"/>
<polygon fill="#63b8ff" stroke="#63b8ff" points="82.36,-27.83 90.46,-21 79.87,-21.28 82.36,-27.83"/>
</a>
</g>
</g>
<!-- Node2&#45;&gt;Node3 -->
<g id="edge2_Node000002_Node000003" class="edge">
<title>Node2&#45;&gt;Node3</title>
<g id="a_edge2_Node000002_Node000003"><a xlink:title=" ">
<path fill="none" stroke="#63b8ff" d="M167.71,-78.87C175.71,-77.64 184.09,-76.35 192.24,-75.1"/>
<polygon fill="#63b8ff" stroke="#63b8ff" points="192.71,-78.57 202.06,-73.59 191.65,-71.65 192.71,-78.57"/>
</a>
</g>
</g>
</g>
</svg>
</svg>

<style type='text/css'>
<![CDATA[
[data-mouse-over-selected='false'] { opacity: 0.7; }
[data-mouse-over-selected='true']  { opacity: 1.0; }
]]>
</style>
<script type="application/ecmascript"><![CDATA[
document.addEventListener('DOMContentLoaded', (event) => {
  highlightEdges();
  highlightAdjacentNodes();
});
]]></script>
</svg>
